<svg xmlns="http://www.w3.org/2000/svg" xmlns:xlink="http://www.w3.org/1999/xlink" version="1.1" class="marks" width="701.3333333333334" height="382" viewBox="0 0 701.3333333333334 382"><rect width="701.3333333333334" height="382" fill="white"/><g fill="none" stroke-miterlimit="10" transform="translate(79,37)"><g class="mark-group role-frame root" role="graphics-object" aria-roledescription="group mark container"><g transform="translate(0,0)"><path class="background" aria-hidden="true" d="M0.5,0.5h533.3333333333334v300h-533.3333333333334Z" stroke="#ddd"/><g><g class="mark-group role-axis" aria-hidden="true"><g transform="translate(0.5,300.5)"><path class="background" aria-hidden="true" d="M0,0h0v0h0Z" pointer-events="none"/><g><g class="mark-rule role-axis-grid" pointer-events="none"><line transform="translate(31,-300)" x2="0" y2="300" stroke="#f5f5f5" stroke-width="1" opacity="1"/><line transform="translate(102,-300)" x2="0" y2="300" stroke="#f5f5f5" stroke-width="1" opacity="1"/><line transform="translate(173,-300)" x2="0" y2="300" stroke="#f5f5f5" stroke-width="1" opacity="1"/><line transform="translate(244,-300)" x2="0" y2="300" stroke="#f5f5f5" stroke-width="1" opacity="1"/><line transform="translate(315,-300)" x2="0" y2="300" stroke="#f5f5f5" stroke-width="1" opacity="1"/><line transform="translate(386,-300)" x2="0" y2="300" stroke="#f5f5f5" stroke-width="1" opacity="1"/><line transform="translate(457,-300)" x2="0" y2="300" stroke="#f5f5f5" stroke-width="1" opacity="1"/><line transform="translate(528,-300)" x2="0" y2="300" stroke="#f5f5f5" stroke-width="1" opacity="1"/></g></g><path class="foreground" aria-hidden="true" d="" pointer-events="none" display="none"/></g></g><g class="mark-group role-axis" aria-hidden="true"><g transform="translate(0.5,0.5)"><path class="background" aria-hidden="true" d="M0,0h0v0h0Z" pointer-events="none"/><g><g class="mark-rule role-axis-grid" pointer-events="none"><line transform="translate(0,300)" x2="533.3333333333334" y2="0" stroke="#f5f5f5" stroke-width="1" opacity="1"/><line transform="translate(0,275)" x2="533.3333333333334" y2="0" stroke="#f5f5f5" stroke-width="1" opacity="1"/><line transform="translate(0,250)" x2="533.3333333333334" y2="0" stroke="#f5f5f5" stroke-width="1" opacity="1"/><line transform="translate(0,225)" x2="533.3333333333334" y2="0" stroke="#f5f5f5" stroke-width="1" opacity="1"/><line transform="translate(0,200)" x2="533.3333333333334" y2="0" stroke="#f5f5f5" stroke-width="1" opacity="1"/><line transform="translate(0,175)" x2="533.3333333333334" y2="0" stroke="#f5f5f5" stroke-width="1" opacity="1"/><line transform="translate(0,150)" x2="533.3333333333334" y2="0" stroke="#f5f5f5" stroke-width="1" opacity="1"/><line transform="translate(0,125)" x2="533.3333333333334" y2="0" stroke="#f5f5f5" stroke-width="1" opacity="1"/><line transform="translate(0,100)" x2="533.3333333333334" y2="0" stroke="#f5f5f5" stroke-width="1" opacity="1"/><line transform="translate(0,75)" x2="533.3333333333334" y2="0" stroke="#f5f5f5" stroke-width="1" opacity="1"/><line transform="translate(0,50)" x2="533.3333333333334" y2="0" stroke="#f5f5f5" stroke-width="1" opacity="1"/><line transform="translate(0,25)" x2="533.3333333333334" y2="0" stroke="#f5f5f5" stroke-width="1" opacity="1"/><line transform="translate(0,0)" x2="533.3333333333334" y2="0" stroke="#f5f5f5" stroke-width="1" opacity="1"/></g></g><path class="foreground" aria-hidden="true" d="" pointer-events="none" display="none"/></g></g><g class="mark-group role-axis" role="graphics-symbol" aria-roledescription="axis" aria-label="X-axis titled 'Date' for a time scale with values from Monday, 28 July 2014, 12:00:00 AM to Wednesday, 26 January 2022, 12:00:00 AM"><g transform="translate(0.5,300.5)"><path class="background" aria-hidden="true" d="M0,0h0v0h0Z" pointer-events="none"/><g><g class="mark-rule role-axis-tick" pointer-events="none"><line transform="translate(31,0)" x2="0" y2="5" stroke="#fff" stroke-width="1" opacity="1"/><line transform="translate(102,0)" x2="0" y2="5" stroke="#fff" stroke-width="1" opacity="1"/><line transform="translate(173,0)" x2="0" y2="5" stroke="#fff" stroke-width="1" opacity="1"/><line transform="translate(244,0)" x2="0" y2="5" stroke="#fff" stroke-width="1" opacity="1"/><line transform="translate(315,0)" x2="0" y2="5" stroke="#fff" stroke-width="1" opacity="1"/><line transform="translate(386,0)" x2="0" y2="5" stroke="#fff" stroke-width="1" opacity="1"/><line transform="translate(457,0)" x2="0" y2="5" stroke="#fff" stroke-width="1" opacity="1"/><line transform="translate(528,0)" x2="0" y2="5" stroke="#fff" stroke-width="1" opacity="1"/></g><g class="mark-text role-axis-label" pointer-events="none"><text text-anchor="middle" transform="translate(30.578416011277262,17)" font-family="JetBrains Mono" font-size="12.8px" fill="#1a1e23" opacity="1">2015</text><text text-anchor="middle" transform="translate(101.6495023097089,17)" font-family="JetBrains Mono" font-size="12.8px" fill="#1a1e23" opacity="1">2016</text><text text-anchor="middle" transform="translate(172.91530391306773,17)" font-family="JetBrains Mono" font-size="12.8px" fill="#1a1e23" opacity="1">2017</text><text text-anchor="middle" transform="translate(243.98639021149938,17)" font-family="JetBrains Mono" font-size="12.8px" fill="#1a1e23" opacity="1">2018</text><text text-anchor="middle" transform="translate(315.057476509931,17)" font-family="JetBrains Mono" font-size="12.8px" fill="#1a1e23" opacity="1">2019</text><text text-anchor="middle" transform="translate(386.12856280836263,17)" font-family="JetBrains Mono" font-size="12.8px" fill="#1a1e23" opacity="1">2020</text><text text-anchor="middle" transform="translate(457.3943644117215,17)" font-family="JetBrains Mono" font-size="12.8px" fill="#1a1e23" opacity="1">2021</text><text text-anchor="middle" transform="translate(528.4654507101532,17)" font-family="JetBrains Mono" font-size="12.8px" fill="#1a1e23" opacity="1">2022</text></g><g class="mark-rule role-axis-domain" pointer-events="none"><line transform="translate(0,0)" x2="533.3333333333334" y2="0" stroke="#1a1e23" stroke-width="1" opacity="1"/></g><g class="mark-text role-axis-title" pointer-events="none"><text text-anchor="middle" transform="translate(266.6666666666667,36.8)" font-family="JetBrains Mono" font-size="16px" font-weight="bold" fill="#1a1e23" opacity="1">Date</text></g></g><path class="foreground" aria-hidden="true" d="" pointer-events="none" display="none"/></g></g><g class="mark-group role-axis" role="graphics-symbol" aria-roledescription="axis" aria-label="Y-axis titled 'Stars' for a linear scale with values from 0 to 24,000"><g transform="translate(0.5,0.5)"><path class="background" aria-hidden="true" d="M0,0h0v0h0Z" pointer-events="none"/><g><g class="mark-rule role-axis-tick" pointer-events="none"><line transform="translate(0,300)" x2="-5" y2="0" stroke="#fff" stroke-width="1" opacity="1"/><line transform="translate(0,275)" x2="-5" y2="0" stroke="#fff" stroke-width="1" opacity="1"/><line transform="translate(0,250)" x2="-5" y2="0" stroke="#fff" stroke-width="1" opacity="1"/><line transform="translate(0,225)" x2="-5" y2="0" stroke="#fff" stroke-width="1" opacity="1"/><line transform="translate(0,200)" x2="-5" y2="0" stroke="#fff" stroke-width="1" opacity="1"/><line transform="translate(0,175)" x2="-5" y2="0" stroke="#fff" stroke-width="1" opacity="1"/><line transform="translate(0,150)" x2="-5" y2="0" stroke="#fff" stroke-width="1" opacity="1"/><line transform="translate(0,125)" x2="-5" y2="0" stroke="#fff" stroke-width="1" opacity="1"/><line transform="translate(0,100)" x2="-5" y2="0" stroke="#fff" stroke-width="1" opacity="1"/><line transform="translate(0,75)" x2="-5" y2="0" stroke="#fff" stroke-width="1" opacity="1"/><line transform="translate(0,50)" x2="-5" y2="0" stroke="#fff" stroke-width="1" opacity="1"/><line transform="translate(0,25)" x2="-5" y2="0" stroke="#fff" stroke-width="1" opacity="1"/><line transform="translate(0,0)" x2="-5" y2="0" stroke="#fff" stroke-width="1" opacity="1"/></g><g class="mark-text role-axis-label" pointer-events="none"><text text-anchor="end" transform="translate(-7,304)" font-family="JetBrains Mono" font-size="12.8px" fill="#1a1e23" opacity="1">0</text><text text-anchor="end" transform="translate(-7,279)" font-family="JetBrains Mono" font-size="12.8px" fill="#1a1e23" opacity="1">2,000</text><text text-anchor="end" transform="translate(-7,254)" font-family="JetBrains Mono" font-size="12.8px" fill="#1a1e23" opacity="1">4,000</text><text text-anchor="end" transform="translate(-7,229)" font-family="JetBrains Mono" font-size="12.8px" fill="#1a1e23" opacity="1">6,000</text><text text-anchor="end" transform="translate(-7,204.00000000000003)" font-family="JetBrains Mono" font-size="12.8px" fill="#1a1e23" opacity="1">8,000</text><text text-anchor="end" transform="translate(-7,178.99999999999997)" font-family="JetBrains Mono" font-size="12.8px" fill="#1a1e23" opacity="1">10,000</text><text text-anchor="end" transform="translate(-7,154)" font-family="JetBrains Mono" font-size="12.8px" fill="#1a1e23" opacity="1">12,000</text><text text-anchor="end" transform="translate(-7,129)" font-family="JetBrains Mono" font-size="12.8px" fill="#1a1e23" opacity="1">14,000</text><text text-anchor="end" transform="translate(-7,104.00000000000001)" font-family="JetBrains Mono" font-size="12.8px" fill="#1a1e23" opacity="1">16,000</text><text text-anchor="end" transform="translate(-7,79)" font-family="JetBrains Mono" font-size="12.8px" fill="#1a1e23" opacity="1">18,000</text><text text-anchor="end" transform="translate(-7,53.999999999999986)" font-family="JetBrains Mono" font-size="12.8px" fill="#1a1e23" opacity="1">20,000</text><text text-anchor="end" transform="translate(-7,29.00000000000001)" font-family="JetBrains Mono" font-size="12.8px" fill="#1a1e23" opacity="1">22,000</text><text text-anchor="end" transform="translate(-7,4)" font-family="JetBrains Mono" font-size="12.8px" fill="#1a1e23" opacity="1">24,000</text></g><g class="mark-rule role-axis-domain" pointer-events="none"><line transform="translate(0,300)" x2="0" y2="-300" stroke="#1a1e23" stroke-width="1" opacity="1"/></g><g class="mark-text role-axis-title" pointer-events="none"><text text-anchor="middle" transform="translate(-57.0799560546875,150) rotate(-90) translate(0,-3)" font-family="JetBrains Mono" font-size="16px" font-weight="bold" fill="#1a1e23" opacity="1">Stars</text></g></g><path class="foreground" aria-hidden="true" d="" pointer-events="none" display="none"/></g></g><g class="mark-symbol role-mark marks" role="graphics-object" aria-roledescription="symbol mark container"><path aria-label="Stars: 0; Date: Jul 28, 2014" role="graphics-symbol" aria-roledescription="circle" transform="translate(0,300)" d="M5,0A5,5,0,1,1,-5,0A5,5,0,1,1,5,0" fill="rgb(142, 252, 255)" stroke="#1a1e23" stroke-width="0.5" opacity="0.7"/><path aria-label="Stars: 1440; Date: Apr 06, 2016" role="graphics-symbol" aria-roledescription="circle" transform="translate(120.33405844501576,282)" d="M5,0A5,5,0,1,1,-5,0A5,5,0,1,1,5,0" fill="rgb(121, 236, 255)" stroke="#1a1e23" stroke-width="0.5" opacity="0.7"/><path aria-label="Stars: 2910; Date: Nov 30, 2016" role="graphics-symbol" aria-roledescription="circle" transform="translate(166.68441415539704,263.625)" d="M5,0A5,5,0,1,1,-5,0A5,5,0,1,1,5,0" fill="rgb(105, 220, 255)" stroke="#1a1e23" stroke-width="0.5" opacity="0.7"/><path aria-label="Stars: 4410; Date: Jun 06, 2017" role="graphics-symbol" aria-roledescription="circle" transform="translate(203.2827783440072,244.875)" d="M5,0A5,5,0,1,1,-5,0A5,5,0,1,1,5,0" fill="rgb(85, 204, 249)" stroke="#1a1e23" stroke-width="0.5" opacity="0.7"/><path aria-label="Stars: 5880; Date: Nov 08, 2017" role="graphics-symbol" aria-roledescription="circle" transform="translate(233.47176374543002,226.5)" d="M5,0A5,5,0,1,1,-5,0A5,5,0,1,1,5,0" fill="rgb(66, 189, 242)" stroke="#1a1e23" stroke-width="0.5" opacity="0.7"/><path aria-label="Stars: 7380; Date: Jan 16, 2018" role="graphics-symbol" aria-roledescription="circle" transform="translate(246.90711978540753,207.75)" d="M5,0A5,5,0,1,1,-5,0A5,5,0,1,1,5,0" fill="rgb(40, 175, 227)" stroke="#1a1e23" stroke-width="0.5" opacity="0.7"/><path aria-label="Stars: 8850; Date: May 23, 2018" role="graphics-symbol" aria-roledescription="circle" transform="translate(271.6278503734579,189.375)" d="M5,0A5,5,0,1,1,-5,0A5,5,0,1,1,5,0" fill="rgb(11, 161, 212)" stroke="#1a1e23" stroke-width="0.5" opacity="0.7"/><path aria-label="Stars: 10350; Date: Oct 04, 2018" role="graphics-symbol" aria-roledescription="circle" transform="translate(297.71970123370403,170.625)" d="M5,0A5,5,0,1,1,-5,0A5,5,0,1,1,5,0" fill="rgb(4, 146, 196)" stroke="#1a1e23" stroke-width="0.5" opacity="0.7"/><path aria-label="Stars: 11820; Date: Feb 27, 2019" role="graphics-symbol" aria-roledescription="circle" transform="translate(326.15624889078197,152.25000000000003)" d="M5,0A5,5,0,1,1,-5,0A5,5,0,1,1,5,0" fill="rgb(1, 131, 180)" stroke="#1a1e23" stroke-width="0.5" opacity="0.7"/><path aria-label="Stars: 13320; Date: Jul 15, 2019" role="graphics-symbol" aria-roledescription="circle" transform="translate(353.0188478330316,133.49999999999997)" d="M5,0A5,5,0,1,1,-5,0A5,5,0,1,1,5,0" fill="rgb(0, 117, 165)" stroke="#1a1e23" stroke-width="0.5" opacity="0.7"/><path aria-label="Stars: 14790; Date: Dec 10, 2019" role="graphics-symbol" aria-roledescription="circle" transform="translate(381.844826099964,115.12500000000001)" d="M5,0A5,5,0,1,1,-5,0A5,5,0,1,1,5,0" fill="rgb(0, 103, 150)" stroke="#1a1e23" stroke-width="0.5" opacity="0.7"/><path aria-label="Stars: 16290; Date: Jun 23, 2020" role="graphics-symbol" aria-roledescription="circle" transform="translate(420.0009127279919,96.37500000000001)" d="M5,0A5,5,0,1,1,-5,0A5,5,0,1,1,5,0" fill="rgb(0, 89, 135)" stroke="#1a1e23" stroke-width="0.5" opacity="0.7"/><path aria-label="Stars: 17760; Date: Jan 20, 2021" role="graphics-symbol" aria-roledescription="circle" transform="translate(461.0939552053385,78)" d="M5,0A5,5,0,1,1,-5,0A5,5,0,1,1,5,0" fill="rgb(0, 76, 121)" stroke="#1a1e23" stroke-width="0.5" opacity="0.7"/><path aria-label="Stars: 19260; Date: Feb 17, 2021" role="graphics-symbol" aria-roledescription="circle" transform="translate(466.5459837433003,59.25)" d="M5,0A5,5,0,1,1,-5,0A5,5,0,1,1,5,0" fill="rgb(0, 63, 106)" stroke="#1a1e23" stroke-width="0.5" opacity="0.7"/><path aria-label="Stars: 20730; Date: Jul 19, 2021" role="graphics-symbol" aria-roledescription="circle" transform="translate(496.134596954531,40.87499999999999)" d="M5,0A5,5,0,1,1,-5,0A5,5,0,1,1,5,0" fill="rgb(0, 50, 93)" stroke="#1a1e23" stroke-width="0.5" opacity="0.7"/><path aria-label="Stars: 22230; Date: Jan 21, 2022" role="graphics-symbol" aria-roledescription="circle" transform="translate(532.3597568086974,22.124999999999993)" d="M5,0A5,5,0,1,1,-5,0A5,5,0,1,1,5,0" fill="rgb(0, 37, 78)" stroke="#1a1e23" stroke-width="0.5" opacity="0.7"/><path aria-label="Stars: 22279; Date: Jan 26, 2022" role="graphics-symbol" aria-roledescription="circle" transform="translate(533.3333333333334,21.512500000000014)" d="M5,0A5,5,0,1,1,-5,0A5,5,0,1,1,5,0" fill="rgb(0, 37, 78)" stroke="#1a1e23" stroke-width="0.5" opacity="0.7"/></g><g class="mark-group role-legend" role="graphics-symbol" aria-roledescription="legend" aria-label="Gradient legend titled 'Stars' for fill color with values from 0 to 22,279"><g transform="translate(552,0)"><path class="background" aria-hidden="true" d="M0,0h65v221h-65Z" pointer-events="none"/><g><g class="mark-group role-legend-entry"><g transform="translate(0,21)"><path class="background" aria-hidden="true" d="M0,0h0v0h0Z" pointer-events="none"/><g><g class="mark-rect role-legend-gradient" pointer-events="none"><path d="M0,0h16v200h-16Z" fill="url(#gradient_0)" stroke="#ddd" stroke-width="0" opacity="0.7"/></g><g class="mark-text role-legend-label" pointer-events="none"><text text-anchor="start" transform="translate(18,197)" font-family="JetBrains Mono" font-size="12.8px" fill="#1a1e23" opacity="1">0</text><text text-anchor="start" transform="translate(18,159.11468198752186)" font-family="JetBrains Mono" font-size="12.8px" fill="#1a1e23" opacity="1">5,000</text><text text-anchor="start" transform="translate(18,114.22936397504375)" font-family="JetBrains Mono" font-size="12.8px" fill="#1a1e23" opacity="1">10,000</text><text text-anchor="start" transform="translate(18,69.34404596256564)" font-family="JetBrains Mono" font-size="12.8px" fill="#1a1e23" opacity="1">15,000</text><text text-anchor="start" transform="translate(18,24.458727950087518)" font-family="JetBrains Mono" font-size="12.8px" fill="#1a1e23" opacity="1">20,000</text></g></g><path class="foreground" aria-hidden="true" d="" pointer-events="none" display="none"/></g></g><g class="mark-text role-legend-title" pointer-events="none"><text text-anchor="start" transform="translate(0,13)" font-family="JetBrains Mono" font-size="16px" font-weight="bold" fill="#1a1e23" opacity="1">Stars</text></g></g><path class="foreground" aria-hidden="true" d="" pointer-events="none" display="none"/></g></g><g class="mark-group role-title"><g transform="translate(266.6666666666667,-31.6)"><path class="background" aria-hidden="true" d="M0,0h0v0h0Z" pointer-events="none"/><g><g class="mark-text role-title-text" role="graphics-symbol" aria-roledescription="title" aria-label="Title text 'spaCy Star History'" pointer-events="none"><text text-anchor="middle" transform="translate(0,17)" font-family="JetBrains Mono" font-size="21.6px" font-weight="bold" fill="#1a1e23" opacity="1">spaCy Star History</text></g></g><path class="foreground" aria-hidden="true" d="" pointer-events="none" display="none"/></g></g></g><path class="foreground" aria-hidden="true" d="" display="none"/></g></g></g><defs><linearGradient id="gradient_0" x1="0" x2="0" y1="1" y2="0"><stop offset="0" stop-color="rgb(142, 252, 255)"/><stop offset="0.08977063602495623" stop-color="rgb(114, 230, 255)"/><stop offset="0.17954127204991246" stop-color="rgb(90, 208, 251)"/><stop offset="0.2693119080748687" stop-color="rgb(64, 188, 241)"/><stop offset="0.35908254409982493" stop-color="rgb(26, 169, 221)"/><stop offset="0.4488531801247812" stop-color="rgb(6, 149, 199)"/><stop offset="0.5386238161497374" stop-color="rgb(1, 130, 178)"/><stop offset="0.6283944521746937" stop-color="rgb(0, 110, 158)"/><stop offset="0.7181650881996499" stop-color="rgb(0, 91, 138)"/><stop offset="0.8079357242246061" stop-color="rgb(0, 74, 118)"/><stop offset="0.8977063602495624" stop-color="rgb(0, 57, 99)"/><stop offset="0.9874769962745186" stop-color="rgb(0, 39, 81)"/><stop offset="1" stop-color="rgb(0, 37, 78)"/></linearGradient></defs></svg>