<svg xmlns="http://www.w3.org/2000/svg" xmlns:xlink="http://www.w3.org/1999/xlink" version="1.1" class="marks" width="754.3333333333334" height="382" viewBox="0 0 754.3333333333334 382"><rect width="754.3333333333334" height="382" fill="white"/><g fill="none" stroke-miterlimit="10" transform="translate(72,37)"><g class="mark-group role-frame root" role="graphics-object" aria-roledescription="group mark container"><g transform="translate(0,0)"><path class="background" aria-hidden="true" d="M0.5,0.5h533.3333333333334v300h-533.3333333333334Z" stroke="#ddd"/><g><g class="mark-group role-axis" aria-hidden="true"><g transform="translate(0.5,300.5)"><path class="background" aria-hidden="true" d="M0,0h0v0h0Z" pointer-events="none"/><g><g class="mark-rule role-axis-grid" pointer-events="none"><line transform="translate(31,-300)" x2="0" y2="300" stroke="#f5f5f5" stroke-width="1" opacity="1"/><line transform="translate(102,-300)" x2="0" y2="300" stroke="#f5f5f5" stroke-width="1" opacity="1"/><line transform="translate(173,-300)" x2="0" y2="300" stroke="#f5f5f5" stroke-width="1" opacity="1"/><line transform="translate(244,-300)" x2="0" y2="300" stroke="#f5f5f5" stroke-width="1" opacity="1"/><line transform="translate(315,-300)" x2="0" y2="300" stroke="#f5f5f5" stroke-width="1" opacity="1"/><line transform="translate(386,-300)" x2="0" y2="300" stroke="#f5f5f5" stroke-width="1" opacity="1"/><line transform="translate(457,-300)" x2="0" y2="300" stroke="#f5f5f5" stroke-width="1" opacity="1"/><line transform="translate(528,-300)" x2="0" y2="300" stroke="#f5f5f5" stroke-width="1" opacity="1"/></g></g><path class="foreground" aria-hidden="true" d="" pointer-events="none" display="none"/></g></g><g class="mark-group role-axis" aria-hidden="true"><g transform="translate(0.5,0.5)"><path class="background" aria-hidden="true" d="M0,0h0v0h0Z" pointer-events="none"/><g><g class="mark-rule role-axis-grid" pointer-events="none"><line transform="translate(0,300)" x2="533.3333333333334" y2="0" stroke="#f5f5f5" stroke-width="1" opacity="1"/><line transform="translate(0,275)" x2="533.3333333333334" y2="0" stroke="#f5f5f5" stroke-width="1" opacity="1"/><line transform="translate(0,250)" x2="533.3333333333334" y2="0" stroke="#f5f5f5" stroke-width="1" opacity="1"/><line transform="translate(0,225)" x2="533.3333333333334" y2="0" stroke="#f5f5f5" stroke-width="1" opacity="1"/><line transform="translate(0,200)" x2="533.3333333333334" y2="0" stroke="#f5f5f5" stroke-width="1" opacity="1"/><line transform="translate(0,175)" x2="533.3333333333334" y2="0" stroke="#f5f5f5" stroke-width="1" opacity="1"/><line transform="translate(0,150)" x2="533.3333333333334" y2="0" stroke="#f5f5f5" stroke-width="1" opacity="1"/><line transform="translate(0,125)" x2="533.3333333333334" y2="0" stroke="#f5f5f5" stroke-width="1" opacity="1"/><line transform="translate(0,100)" x2="533.3333333333334" y2="0" stroke="#f5f5f5" stroke-width="1" opacity="1"/><line transform="translate(0,75)" x2="533.3333333333334" y2="0" stroke="#f5f5f5" stroke-width="1" opacity="1"/><line transform="translate(0,50)" x2="533.3333333333334" y2="0" stroke="#f5f5f5" stroke-width="1" opacity="1"/><line transform="translate(0,25)" x2="533.3333333333334" y2="0" stroke="#f5f5f5" stroke-width="1" opacity="1"/><line transform="translate(0,0)" x2="533.3333333333334" y2="0" stroke="#f5f5f5" stroke-width="1" opacity="1"/></g></g><path class="foreground" aria-hidden="true" d="" pointer-events="none" display="none"/></g></g><g class="mark-group role-axis" role="graphics-symbol" aria-roledescription="axis" aria-label="X-axis titled 'Date' for a time scale with values from Monday, 28 July 2014, 12:00:00 AM to Wednesday, 26 January 2022, 12:00:00 AM"><g transform="translate(0.5,300.5)"><path class="background" aria-hidden="true" d="M0,0h0v0h0Z" pointer-events="none"/><g><g class="mark-rule role-axis-tick" pointer-events="none"><line transform="translate(31,0)" x2="0" y2="5" stroke="#fff" stroke-width="1" opacity="1"/><line transform="translate(102,0)" x2="0" y2="5" stroke="#fff" stroke-width="1" opacity="1"/><line transform="translate(173,0)" x2="0" y2="5" stroke="#fff" stroke-width="1" opacity="1"/><line transform="translate(244,0)" x2="0" y2="5" stroke="#fff" stroke-width="1" opacity="1"/><line transform="translate(315,0)" x2="0" y2="5" stroke="#fff" stroke-width="1" opacity="1"/><line transform="translate(386,0)" x2="0" y2="5" stroke="#fff" stroke-width="1" opacity="1"/><line transform="translate(457,0)" x2="0" y2="5" stroke="#fff" stroke-width="1" opacity="1"/><line transform="translate(528,0)" x2="0" y2="5" stroke="#fff" stroke-width="1" opacity="1"/></g><g class="mark-text role-axis-label" pointer-events="none"><text text-anchor="middle" transform="translate(30.578416011277262,17)" font-family="sans-serif" font-size="12.8px" fill="#1a1e23" opacity="1">2015</text><text text-anchor="middle" transform="translate(101.6495023097089,17)" font-family="sans-serif" font-size="12.8px" fill="#1a1e23" opacity="1">2016</text><text text-anchor="middle" transform="translate(172.91530391306773,17)" font-family="sans-serif" font-size="12.8px" fill="#1a1e23" opacity="1">2017</text><text text-anchor="middle" transform="translate(243.98639021149938,17)" font-family="sans-serif" font-size="12.8px" fill="#1a1e23" opacity="1">2018</text><text text-anchor="middle" transform="translate(315.057476509931,17)" font-family="sans-serif" font-size="12.8px" fill="#1a1e23" opacity="1">2019</text><text text-anchor="middle" transform="translate(386.12856280836263,17)" font-family="sans-serif" font-size="12.8px" fill="#1a1e23" opacity="1">2020</text><text text-anchor="middle" transform="translate(457.3943644117215,17)" font-family="sans-serif" font-size="12.8px" fill="#1a1e23" opacity="1">2021</text><text text-anchor="middle" transform="translate(528.4654507101532,17)" font-family="sans-serif" font-size="12.8px" fill="#1a1e23" opacity="1">2022</text></g><g class="mark-rule role-axis-domain" pointer-events="none"><line transform="translate(0,0)" x2="533.3333333333334" y2="0" stroke="#1a1e23" stroke-width="1" opacity="1"/></g><g class="mark-text role-axis-title" pointer-events="none"><text text-anchor="middle" transform="translate(266.6666666666667,36.8)" font-family="sans-serif" font-size="16px" font-weight="bold" fill="#1a1e23" opacity="1">Date</text></g></g><path class="foreground" aria-hidden="true" d="" pointer-events="none" display="none"/></g></g><g class="mark-group role-axis" role="graphics-symbol" aria-roledescription="axis" aria-label="Y-axis titled 'Stars' for a linear scale with values from 0 to 24,000"><g transform="translate(0.5,0.5)"><path class="background" aria-hidden="true" d="M0,0h0v0h0Z" pointer-events="none"/><g><g class="mark-rule role-axis-tick" pointer-events="none"><line transform="translate(0,300)" x2="-5" y2="0" stroke="#fff" stroke-width="1" opacity="1"/><line transform="translate(0,275)" x2="-5" y2="0" stroke="#fff" stroke-width="1" opacity="1"/><line transform="translate(0,250)" x2="-5" y2="0" stroke="#fff" stroke-width="1" opacity="1"/><line transform="translate(0,225)" x2="-5" y2="0" stroke="#fff" stroke-width="1" opacity="1"/><line transform="translate(0,200)" x2="-5" y2="0" stroke="#fff" stroke-width="1" opacity="1"/><line transform="translate(0,175)" x2="-5" y2="0" stroke="#fff" stroke-width="1" opacity="1"/><line transform="translate(0,150)" x2="-5" y2="0" stroke="#fff" stroke-width="1" opacity="1"/><line transform="translate(0,125)" x2="-5" y2="0" stroke="#fff" stroke-width="1" opacity="1"/><line transform="translate(0,100)" x2="-5" y2="0" stroke="#fff" stroke-width="1" opacity="1"/><line transform="translate(0,75)" x2="-5" y2="0" stroke="#fff" stroke-width="1" opacity="1"/><line transform="translate(0,50)" x2="-5" y2="0" stroke="#fff" stroke-width="1" opacity="1"/><line transform="translate(0,25)" x2="-5" y2="0" stroke="#fff" stroke-width="1" opacity="1"/><line transform="translate(0,0)" x2="-5" y2="0" stroke="#fff" stroke-width="1" opacity="1"/></g><g class="mark-text role-axis-label" pointer-events="none"><text text-anchor="end" transform="translate(-7,304)" font-family="sans-serif" font-size="12.8px" fill="#1a1e23" opacity="1">0</text><text text-anchor="end" transform="translate(-7,279)" font-family="sans-serif" font-size="12.8px" fill="#1a1e23" opacity="1">2,000</text><text text-anchor="end" transform="translate(-7,254)" font-family="sans-serif" font-size="12.8px" fill="#1a1e23" opacity="1">4,000</text><text text-anchor="end" transform="translate(-7,229)" font-family="sans-serif" font-size="12.8px" fill="#1a1e23" opacity="1">6,000</text><text text-anchor="end" transform="translate(-7,204.00000000000003)" font-family="sans-serif" font-size="12.8px" fill="#1a1e23" opacity="1">8,000</text><text text-anchor="end" transform="translate(-7,178.99999999999997)" font-family="sans-serif" font-size="12.8px" fill="#1a1e23" opacity="1">10,000</text><text text-anchor="end" transform="translate(-7,154)" font-family="sans-serif" font-size="12.8px" fill="#1a1e23" opacity="1">12,000</text><text text-anchor="end" transform="translate(-7,129)" font-family="sans-serif" font-size="12.8px" fill="#1a1e23" opacity="1">14,000</text><text text-anchor="end" transform="translate(-7,104.00000000000001)" font-family="sans-serif" font-size="12.8px" fill="#1a1e23" opacity="1">16,000</text><text text-anchor="end" transform="translate(-7,79)" font-family="sans-serif" font-size="12.8px" fill="#1a1e23" opacity="1">18,000</text><text text-anchor="end" transform="translate(-7,53.999999999999986)" font-family="sans-serif" font-size="12.8px" fill="#1a1e23" opacity="1">20,000</text><text text-anchor="end" transform="translate(-7,29.00000000000001)" font-family="sans-serif" font-size="12.8px" fill="#1a1e23" opacity="1">22,000</text><text text-anchor="end" transform="translate(-7,4)" font-family="sans-serif" font-size="12.8px" fill="#1a1e23" opacity="1">24,000</text></g><g class="mark-rule role-axis-domain" pointer-events="none"><line transform="translate(0,300)" x2="0" y2="-300" stroke="#1a1e23" stroke-width="1" opacity="1"/></g><g class="mark-text role-axis-title" pointer-events="none"><text text-anchor="middle" transform="translate(-50.14996337890625,150) rotate(-90) translate(0,-3)" font-family="sans-serif" font-size="16px" font-weight="bold" fill="#1a1e23" opacity="1">Stars</text></g></g><path class="foreground" aria-hidden="true" d="" pointer-events="none" display="none"/></g></g><g class="mark-group role-scope pathgroup" role="graphics-object" aria-roledescription="group mark container"><g transform="translate(0,0)"><path class="background" aria-hidden="true" d="M0,0h533.3333333333334v300h-533.3333333333334Z"/><g><g class="mark-line role-mark marks" role="graphics-object" aria-roledescription="line mark container"><path aria-label="Repo: explosion/spaCy; Date: Jul 28, 2014; Stars: 0" role="graphics-symbol" aria-roledescription="line mark" d="M0,300L120.33405844501576,282L166.68441415539704,263.625L203.2827783440072,244.875L233.47176374543002,226.5L246.90711978540753,207.75L271.6278503734579,189.375L297.71970123370403,170.625L326.15624889078197,152.25000000000003L353.0188478330316,133.49999999999997L381.844826099964,115.12500000000001L420.0009127279919,96.37500000000001L461.0939552053385,78L466.5459837433003,59.25L496.134596954531,40.87499999999999L532.3597568086974,22.124999999999993L533.3333333333334,21.512500000000014" stroke="#077fa6" stroke-width="5"/></g></g><path class="foreground" aria-hidden="true" d="" display="none"/></g><g transform="translate(0,0)"><path class="background" aria-hidden="true" d="M0,0h533.3333333333334v300h-533.3333333333334Z"/><g><g class="mark-line role-mark marks" role="graphics-object" aria-roledescription="line mark container"><path aria-label="Repo: explosion/thinc; Date: Nov 23, 2014; Stars: 0" role="graphics-symbol" aria-roledescription="line mark" d="M22.984519119116072,300L182.26163854957383,298.875L204.25635486864326,296.625L240.09208411295518,294.75L271.04370445867625,292.5L301.2245767223938,290.625L336.85747752407326,288.375L370.3485099715533,286.5L391.3858760413973,284.25L391.58059134632447,282.375L391.9700219561789,280.125L396.05904335965033,278.25L422.72692699697285,276L451.9423358737596,274.125L482.30981030469906,271.875L522.0398456475551,270L533.3333333333334,269.525" stroke="#047c5c" stroke-width="5"/></g></g><path class="foreground" aria-hidden="true" d="" display="none"/></g><g transform="translate(0,0)"><path class="background" aria-hidden="true" d="M0,0h533.3333333333334v300h-533.3333333333334Z"/><g><g class="mark-line role-mark marks" role="graphics-object" aria-roledescription="line mark container"><path aria-label="Repo: explosion/projects; Date: Nov 21, 2019; Stars: 0" role="graphics-symbol" aria-roledescription="line mark" d="M378.145235306347,300L378.53466591620145,299.625L383.4025485393817,298.875L411.04400870134026,298.125L418.6379055935014,297.75L437.52529017144076,297L457.19964910679425,296.25L463.81996947431946,295.875L472.37932975341135,295.125L481.53094908499025,294.375L487.9565541475881,294L499.25004183336637,293.25L512.4906825684166,292.5L517.3585651915969,292.125L525.1552905263906,291.375L533.3333333333334,290.7625" stroke="#6642d1" stroke-width="5"/></g></g><path class="foreground" aria-hidden="true" d="" display="none"/></g></g><g class="mark-group role-legend" role="graphics-symbol" aria-roledescription="legend" aria-label="Symbol legend titled 'Repo' for stroke color with 3 values: explosion/spaCy, explosion/thinc, explosion/projects"><g transform="translate(557,0)"><path class="background" aria-hidden="true" d="M0,0h120v67h-120Z" pointer-events="none"/><g><g class="mark-group role-legend-entry"><g transform="translate(0,21)"><path class="background" aria-hidden="true" d="M0,0h0v0h0Z" pointer-events="none"/><g><g class="mark-group role-scope" role="graphics-object" aria-roledescription="group mark container"><g transform="translate(0,0)"><path class="background" aria-hidden="true" d="M0,0h119.25616149902343v13.200000000000001h-119.25616149902343Z" pointer-events="none" opacity="1"/><g><g class="mark-symbol role-legend-symbol" pointer-events="none"><path transform="translate(6.4,6.4)" d="M-5,0L5,0" stroke="#077fa6" stroke-width="1.5" opacity="1"/></g><g class="mark-text role-legend-label" pointer-events="none"><text text-anchor="start" transform="translate(16.8,10.4)" font-family="sans-serif" font-size="12.8px" fill="#1a1e23" opacity="1">explosion/spaCy</text></g></g><path class="foreground" aria-hidden="true" d="" pointer-events="none" display="none"/></g><g transform="translate(0,16)"><path class="background" aria-hidden="true" d="M0,0h119.25616149902343v13.200000000000003h-119.25616149902343Z" pointer-events="none" opacity="1"/><g><g class="mark-symbol role-legend-symbol" pointer-events="none"><path transform="translate(6.4,6.4)" d="M-5,0L5,0" stroke="#047c5c" stroke-width="1.5" opacity="1"/></g><g class="mark-text role-legend-label" pointer-events="none"><text text-anchor="start" transform="translate(16.8,10.4)" font-family="sans-serif" font-size="12.8px" fill="#1a1e23" opacity="1">explosion/thinc</text></g></g><path class="foreground" aria-hidden="true" d="" pointer-events="none" display="none"/></g><g transform="translate(0,32)"><path class="background" aria-hidden="true" d="M0,0h119.25616149902343v13.200000000000003h-119.25616149902343Z" pointer-events="none" opacity="1"/><g><g class="mark-symbol role-legend-symbol" pointer-events="none"><path transform="translate(6.4,6.4)" d="M-5,0L5,0" stroke="#6642d1" stroke-width="1.5" opacity="1"/></g><g class="mark-text role-legend-label" pointer-events="none"><text text-anchor="start" transform="translate(16.8,10.4)" font-family="sans-serif" font-size="12.8px" fill="#1a1e23" opacity="1">explosion/projects</text></g></g><path class="foreground" aria-hidden="true" d="" pointer-events="none" display="none"/></g></g></g><path class="foreground" aria-hidden="true" d="" pointer-events="none" display="none"/></g></g><g class="mark-text role-legend-title" pointer-events="none"><text text-anchor="start" transform="translate(0,13)" font-family="sans-serif" font-size="16px" font-weight="bold" fill="#1a1e23" opacity="1">Repo</text></g></g><path class="foreground" aria-hidden="true" d="" pointer-events="none" display="none"/></g></g><g class="mark-group role-title"><g transform="translate(266.6666666666667,-31.6)"><path class="background" aria-hidden="true" d="M0,0h0v0h0Z" pointer-events="none"/><g><g class="mark-text role-title-text" role="graphics-symbol" aria-roledescription="title" aria-label="Title text 'explosion Star History'" pointer-events="none"><text text-anchor="middle" transform="translate(0,17)" font-family="sans-serif" font-size="21.6px" font-weight="bold" fill="#1a1e23" opacity="1">explosion Star History</text></g></g><path class="foreground" aria-hidden="true" d="" pointer-events="none" display="none"/></g></g></g><path class="foreground" aria-hidden="true" d="" display="none"/></g></g></g></svg>